<?xml version="1.0" standalone="no"?>
<!DOCTYPE svg PUBLIC "-//W3C//DTD SVG 1.1//EN" "http://www.w3.org/Graphics/SVG/1.1/DTD/svg11.dtd" >
<svg xmlns="http://www.w3.org/2000/svg">
<metadata>
This is a custom SVG webfont generated by Font Squirrel.
Copyright   : Copyright c  M Klein  12004
</metadata>
<defs>
<font id="webfontjXOQHpJq" horiz-adv-x="1202" >
<font-face units-per-em="2048" ascent="1638" descent="-410" />
<missing-glyph horiz-adv-x="1171" />
<glyph unicode=" "  horiz-adv-x="1171" />
<glyph unicode="&#x09;" horiz-adv-x="1171" />
<glyph unicode="&#xa0;" horiz-adv-x="1171" />
<glyph unicode="!" d="M465 2h270v336h-270v-336zM506 1108l47 -639h100l43 639v461h-190v-461z" />
<glyph unicode="&#x22;" d="M395 961h131v614h-131v-614zM678 961h129v614h-129v-614z" />
<glyph unicode="#" d="M117 494h147l-92 -498h133l96 498h273l-92 -498h135l92 498h197v163h-168l53 287h194v162h-161l92 500h-137l-97 -500h-270l92 500h-135l-96 -500h-180v-162h153l-55 -287h-174v-163zM428 653l55 291h273l-54 -291h-274z" />
<glyph unicode="$" d="M127 473q0 -227 103.5 -342t320.5 -141v-195h100v197q209 25 316.5 141.5t107.5 308.5q0 100 -24.5 172t-75.5 123t-132 86t-192 64v495q100 -6 154.5 -66.5t66.5 -170.5h170q-2 180 -102 284.5t-289 122.5v148h-100v-148q-92 -6 -165 -38.5t-124 -88t-78.5 -131 t-27.5 -166.5q0 -340 395 -411v-559q-119 6 -186.5 89t-67.5 224v23h-170v-21zM326 1145q0 104 60 169.5t165 67.5v-477q-117 23 -171 79.5t-54 160.5zM651 150v536q129 -35 188.5 -95.5t59.5 -170.5q0 -115 -63.5 -185.5t-184.5 -84.5z" />
<glyph unicode="%" d="M47 1225q0 -74 23.5 -137.5t64.5 -111.5t96.5 -75t118.5 -27t118.5 28t96.5 76t64.5 111.5t23.5 135.5q0 74 -23.5 138t-65.5 111.5t-97 75t-117 27.5q-63 0 -118.5 -26.5t-96.5 -75t-64.5 -112.5t-23.5 -138zM96 618l35 -104l995 459l-39 106zM174 1225q0 43 13.5 79.5 t38 64.5t56 43t68.5 15q72 0 123 -58t51 -144t-51 -144.5t-123 -58.5q-74 0 -125 58.5t-51 144.5zM549 354q0 -76 23.5 -140t64.5 -111.5t95 -74t118 -26.5q63 0 118.5 27.5t96.5 76t65.5 112t24.5 136.5q0 72 -24.5 135.5t-65.5 111.5t-97.5 76t-117.5 28q-63 0 -117.5 -28 t-95.5 -75t-64.5 -110.5t-23.5 -137.5zM678 354q0 43 13.5 80t37 64.5t54 43t67.5 15.5t68.5 -15.5t55 -43t38 -64.5t14.5 -80q0 -84 -50 -143t-126 -59q-72 0 -122 58t-50 144z" />
<glyph unicode="&#x26;" horiz-adv-x="1204" d="M63 416q0 -96 27 -178t76 -142.5t116.5 -95.5t149.5 -35q117 0 206 49t167 162l113 -174h223l-234 350q45 98 67.5 197.5t26.5 212.5h-172q-2 -66 -9 -122t-25 -108l-222 326q217 172 218 404q0 76 -21.5 139t-59.5 108t-89.5 71t-108.5 26q-68 0 -123 -27t-95 -75 t-61.5 -111.5t-21.5 -137.5q0 -174 129 -370q-72 -51 -124 -101.5t-86 -106.5t-50.5 -120.5t-16.5 -140.5zM231 449q0 96 49.5 169.5t149.5 145.5l285 -434q-45 -78 -110.5 -120t-141.5 -42q-53 0 -95 21.5t-73 59.5t-47.5 89.5t-16.5 110.5zM371 1255q0 72 41 125.5 t100 53.5q53 0 90 -51.5t37 -127.5q0 -72 -41 -140t-119 -122q-53 74 -80.5 135t-27.5 127z" />
<glyph unicode="'" d="M537 961h129v614h-129v-614z" />
<glyph unicode="(" horiz-adv-x="1204" d="M383 604q0 -276 77 -524t240 -494h121q-123 229 -187.5 489.5t-64.5 528.5t64.5 528.5t187.5 489.5h-121q-164 -246 -240.5 -492.5t-76.5 -525.5z" />
<glyph unicode=")" horiz-adv-x="1200" d="M381 -414h121q162 246 239.5 494t77.5 524q0 279 -77.5 525.5t-239.5 492.5h-121q123 -229 186.5 -489.5t63.5 -528.5t-63.5 -528.5t-186.5 -489.5z" />
<glyph unicode="*" d="M217 1143l281 -82l-195 -275l131 -104l166 289l170 -293l129 108l-197 275l283 82l-53 172l-264 -113v332h-133v-332l-267 113z" />
<glyph unicode="+" d="M150 727h385v-489h135v489h383v154h-383v489h-135v-489h-385v-154z" />
<glyph unicode="," horiz-adv-x="1200" d="M442 -223v-154q154 10 235 118.5t81 313.5v363h-269v-338h132v-43q0 -127 -40.5 -186.5t-138.5 -73.5z" />
<glyph unicode="-" d="M367 535h469v178h-469v-178z" />
<glyph unicode="." d="M467 59h268v334h-268v-334z" />
<glyph unicode="/" d="M299 -199h133l471 1815h-135z" />
<glyph unicode="0" d="M133 768q0 -403 120 -606t349 -203t348 201.5t119 607.5t-119 608.5t-348 202.5t-349 -204t-120 -607zM319 768q0 317 66 471t217 154q154 0 217.5 -154t63.5 -471t-63.5 -471t-217.5 -154q-152 0 -217.5 154t-65.5 471z" />
<glyph unicode="1" horiz-adv-x="1196" d="M352 1114h316v-1112h176v1575h-131q-18 -162 -104.5 -230.5t-256.5 -70.5v-162z" />
<glyph unicode="2" d="M137 2h928v195h-733q14 57 41.5 105t68.5 90t95.5 80t119.5 77l115 67q152 90 222.5 212t70.5 282q0 104 -32 190t-90 147.5t-141 95.5t-184 34q-102 0 -185 -37t-142.5 -105.5t-91 -169t-31.5 -225.5v-30h176v18q0 174 71.5 268.5t194.5 94.5q125 0 198 -78t73 -201 q0 -111 -48.5 -190.5t-150.5 -145.5l-115 -71q-109 -68 -189.5 -137.5t-134 -150.5t-80 -180.5t-26.5 -228.5v-6z" />
<glyph unicode="3" horiz-adv-x="1200" d="M129 479q0 -119 32 -215t92 -163.5t144 -104.5t189 -37q113 0 203 36t153.5 102.5t97 157.5t33.5 202q0 147 -56 243.5t-167 141.5q172 88 172 315q0 199 -111.5 310.5t-324.5 111.5q-96 0 -175 -35t-134.5 -100.5t-86 -157.5t-30.5 -209v-16h174q0 334 262 334 q117 0 177.5 -63.5t60.5 -182.5q0 -127 -64.5 -185.5t-194.5 -58.5h-24q-18 0 -51 2v-178q23 2 46 3t50 1q141 0 214 -73.5t73 -202.5q0 -143 -76 -226.5t-209 -83.5q-137 0 -212 91.5t-79 257.5h-178v-17z" />
<glyph unicode="4" d="M121 391h592v-387h176v387h192v180h-192v963h-176l-592 -944v-199zM285 571l428 701v-701h-428z" />
<glyph unicode="5" d="M129 414q8 -100 44 -183.5t96.5 -143.5t141.5 -93t177 -33q106 0 195 40t153.5 112.5t99.5 175t35 225.5q0 115 -32.5 210t-93 163.5t-145.5 106.5t-190 38q-160 0 -258 -102l54 422h591v184h-721l-108 -829h156q100 145 258 145q139 0 220 -95t81 -255 q0 -78 -21.5 -141.5t-60.5 -108.5t-95.5 -70.5t-123.5 -25.5q-111 0 -182.5 67.5t-88.5 190.5h-182z" />
<glyph unicode="6" d="M127 698q0 -365 127 -552t362 -187q104 0 189.5 39t145 108.5t92 166t32.5 210.5q0 121 -32.5 217.5t-90 163t-136.5 102t-173 35.5q-205 0 -321 -172q25 567 319 568q111 0 172 -63.5t72 -186.5h180q-10 207 -122 319.5t-304 112.5q-240 0 -376 -224.5t-136 -656.5z M338 479q0 158 75.5 248t209.5 90q117 0 190.5 -88t73.5 -248q0 -156 -75 -250t-198 -94q-127 0 -201.5 92t-74.5 250z" />
<glyph unicode="7" d="M137 1329h740q-238 -297 -374 -620.5t-179 -704.5h196q41 387 177.5 720t367.5 624v186h-928v-205z" />
<glyph unicode="8" d="M135 453q0 -109 32 -200t91 -156.5t145 -101.5t197 -36t198 36t146.5 101.5t91 156.5t31.5 200q0 297 -225 393q178 94 178 330q0 86 -29.5 160.5t-84 128t-132.5 84t-174 30.5t-174 -30.5t-132 -84t-84 -128t-30 -160.5q0 -236 180 -330q-225 -96 -225 -393zM324 457 q0 135 73.5 211.5t202.5 76.5q131 0 205 -76.5t74 -211.5q0 -141 -74 -225.5t-205 -84.5q-129 0 -202.5 84.5t-73.5 225.5zM367 1157q0 115 61 178.5t172 63.5t173.5 -63.5t62.5 -178.5q0 -111 -62.5 -179.5t-173.5 -68.5q-109 0 -171 68.5t-62 179.5z" />
<glyph unicode="9" d="M127 1055q0 -121 33 -217.5t90 -163t136 -102t173 -35.5q205 0 322 172q-27 -567 -320 -568q-111 0 -175 65.5t-69 184.5h-178q0 -98 30 -177t84 -136.5t132 -88t174 -30.5q248 0 382 225.5t134 655.5q0 365 -127 552t-362 187q-104 0 -189.5 -39t-144.5 -108.5 t-92 -165.5t-33 -211zM315 1057q0 156 74 250t197 94q129 0 203.5 -92t74.5 -250t-74.5 -247t-209.5 -89q-117 0 -191 87t-74 247z" />
<glyph unicode=":" d="M467 18h268v336h-268v-336zM467 893h268v336h-268v-336z" />
<glyph unicode=";" horiz-adv-x="1200" d="M442 -262v-154q154 10 235 118t81 312v363h-269v-338h132v-43q0 -125 -40.5 -184.5t-138.5 -73.5zM489 913h269v336h-269v-336z" />
<glyph unicode="&#x3c;" d="M150 733l903 -479v180l-715 369l715 375v176l-903 -480v-141z" />
<glyph unicode="=" d="M150 506h903v153h-903v-153zM150 940h903v156h-903v-156z" />
<glyph unicode="&#x3e;" d="M150 254l903 479v141l-903 480v-176l716 -375l-716 -369v-180z" />
<glyph unicode="?" d="M182 1112h170q8 319 258 320q106 0 165 -62.5t59 -167.5q0 -68 -27 -125t-80 -114l-74 -78q-72 -78 -110.5 -163t-38.5 -198q0 -14 1 -27.5t1 -29.5h170q-2 14 -2 27v24q0 51 7 89t22.5 70t38 59.5t53.5 60.5l79 80q145 147 146 335q0 86 -28.5 159t-81 125t-127 82 t-167.5 30q-211 0 -322.5 -123t-111.5 -346v-27zM453 0h270v336h-270v-336z" />
<glyph unicode="@" horiz-adv-x="1204" d="M98 754q0 -401 114 -598t355 -197q33 0 80 -1t77 -2t34 -1v149q-4 0 -31 1l-69 2.5t-68 1.5q-96 0 -162 39.5t-105.5 122.5t-58 210t-18.5 303q0 680 348 680q68 0 120 -22.5t88 -60.5t54 -87t18 -102q0 -35 -20 -49.5t-57 -22.5t-86 -13t-107 -22q-121 -35 -180 -124 t-59 -246q0 -168 66.5 -262.5t182.5 -94.5q86 0 155 49.5t130 147.5v-14q0 -80 33 -118t104 -38q12 0 29.5 -2t42.5 8v131q-10 -4 -19.5 -1t-13.5 3q-47 0 -47 64v39v331q0 152 -15.5 262.5t-62.5 192.5q-55 92 -144 144.5t-206 52.5q-502 0 -502 -856zM514 723 q0 102 34 156.5t111 81.5q59 18 115.5 25t106.5 38v-197q0 -160 -68 -238.5t-162 -78.5q-66 0 -101.5 53.5t-35.5 159.5z" />
<glyph unicode="A" d="M8 2h180l142 461h538l142 -461h184l-496 1567h-196zM391 633l209 710l209 -710h-418z" />
<glyph unicode="B" d="M133 2h508q207 0 317.5 124t110.5 345q0 147 -62.5 244.5t-181.5 132.5q92 53 138.5 130t46.5 196q0 195 -99.5 294t-296.5 99h-481v-1565zM313 190v537h289q141 0 211 -61.5t70 -198.5q0 -276 -262 -277h-308zM313 907v471h279q123 0 181 -52t58 -175q0 -117 -63 -180.5 t-190 -63.5h-265z" />
<glyph unicode="C" d="M109 784q0 -197 35.5 -350t100 -258.5t157 -161t206.5 -55.5q98 0 182 42t146.5 122t103.5 195.5t54 265.5h-187q-23 -215 -103.5 -324.5t-195.5 -109.5q-137 0 -225 161.5t-88 472.5t87 474t226 163q100 0 174 -83t105 -242h184q-16 121 -56 216t-100.5 161.5 t-138.5 101.5t-168 35q-115 0 -207 -54.5t-156.5 -160t-100 -259t-35.5 -352.5z" />
<glyph unicode="D" horiz-adv-x="1204" d="M127 2h448q240 0 371 200.5t131 581.5q0 782 -502 783h-448v-1565zM307 190v1188h254q86 0 148.5 -32.5t102.5 -103.5t59.5 -184.5t19.5 -273.5q0 -303 -80 -448.5t-250 -145.5h-254z" />
<glyph unicode="E" d="M174 2h856v191h-678v538h604v178h-604v467h662v191h-840v-1565z" />
<glyph unicode="F" horiz-adv-x="1204" d="M162 2h182v729h567v178h-567v467h698v191h-880v-1565z" />
<glyph unicode="G" d="M100 784q0 -195 39 -347t106.5 -258.5t159 -163t195.5 -56.5q233 0 371 254l33 -211h96v846h-492v-182h303v-13q0 -115 -22.5 -208t-62.5 -157.5t-95 -99t-119 -34.5q-143 0 -234 162.5t-91 474.5q0 311 88 475t248 164q109 0 178 -86.5t90 -247.5h192 q-25 244 -144.5 379t-305.5 135q-121 0 -219.5 -56.5t-168 -163t-107.5 -260t-38 -346.5z" />
<glyph unicode="H" d="M152 2h180v735h540v-735h179v1565h-179v-639h-540v639h-180v-1565z" />
<glyph unicode="I" d="M262 2h678v180h-250v1204h250v181h-678v-181h250v-1204h-250v-180z" />
<glyph unicode="J" horiz-adv-x="1196" d="M152 516q0 -291 104 -423t342 -132q119 0 204 32t138 99.5t78.5 172t25.5 249.5v1055h-178v-1047q0 -96 -12 -165.5t-42 -114.5t-81 -67.5t-131 -22.5q-147 0 -209.5 87t-62.5 279q0 27 1 54.5t3 58.5h-176q-2 -31 -3 -58.5t-1 -56.5z" />
<glyph unicode="K" horiz-adv-x="1206" d="M98 2h178v557l160 199l455 -756h217l-545 907l529 658h-215l-601 -744v744h-178v-1565z" />
<glyph unicode="L" horiz-adv-x="1204" d="M168 2h868v180h-688v1385h-180v-1565z" />
<glyph unicode="M" d="M115 2h149v1419l254 -1419h166l252 1419v-1419h151v1565h-237l-250 -1381l-246 1381h-239v-1565z" />
<glyph unicode="N" d="M158 2h161v1262l496 -1262h229v1565h-163v-1282l-492 1282h-231v-1565z" />
<glyph unicode="O" d="M100 784q0 -197 36 -350t100.5 -258.5t156.5 -161t207 -55.5t207 55.5t157.5 161t101.5 259t36 349.5q0 197 -36 350.5t-101.5 259t-157.5 161t-207 55.5t-207 -54.5t-157.5 -160t-100.5 -259t-35 -352.5zM289 784q0 311 86 474t225 163q141 0 227 -163.5t86 -473.5 q0 -309 -86 -471.5t-227 -162.5q-139 0 -225 161.5t-86 472.5z" />
<glyph unicode="P" horiz-adv-x="1204" d="M164 2h178v662h199q113 0 200.5 12t159.5 78q139 123 139 362q0 223 -103 337t-306 114h-101h-366v-1565zM342 844v530h240q68 0 119 -12t84.5 -42t50 -79t16.5 -125q0 -80 -18.5 -132t-53.5 -83t-88 -44t-123 -13h-227z" />
<glyph unicode="Q" d="M100 784q0 -197 36 -350t100.5 -258.5t156.5 -161t207 -55.5t207 55.5t157.5 161t101.5 259t36 349.5q0 197 -36 350.5t-101.5 259t-157.5 161t-207 55.5t-207 -54.5t-157.5 -160t-100.5 -259t-35 -352.5zM289 784q0 311 86 474t225 163q141 0 227 -163.5t86 -473.5 q0 -309 -86 -471.5t-227 -162.5q-139 0 -225 161.5t-86 472.5zM514 -223l465 -82l31 174l-463 82z" />
<glyph unicode="R" d="M150 2h182v672h184q82 0 136.5 -8.5t86 -34t46 -76.5t18.5 -137l10 -203q10 -162 35 -213h205v43q-33 23 -44.5 66t-15.5 114l-14 252q-4 61 -10 107.5t-21.5 81t-43 59.5t-73.5 41q178 94 179 354q0 217 -102.5 332t-305.5 115h-104h-348v-1565zM332 840v534h219 q68 0 119 -12t84.5 -42t51 -79t17.5 -125q0 -158 -72.5 -217t-211.5 -59h-207z" />
<glyph unicode="S" d="M117 518q10 -270 136 -414.5t351 -144.5q113 0 202 36t151.5 100.5t95 155.5t32.5 204t-28.5 186.5t-81.5 120.5t-131 77.5t-178 57.5q-88 25 -150.5 44.5t-101.5 48t-56.5 71.5t-17.5 113q0 113 68.5 180t185.5 67q123 0 195.5 -82t82.5 -239h177v4q0 242 -121 373 t-340 131q-96 0 -175 -34t-136.5 -95.5t-88 -146.5t-30.5 -189q0 -102 25.5 -169t73.5 -113t117.5 -77.5t157.5 -60.5l160 -50q70 -22 118 -49.5t72.5 -71.5t24.5 -120q0 -131 -82 -206.5t-213 -75.5q-145 0 -232 97t-87 271h-176z" />
<glyph unicode="T" d="M102 1376h410v-1374h180v1374h408v191h-998v-191z" />
<glyph unicode="U" d="M135 600q0 -324 113.5 -481.5t351.5 -157.5q240 0 353.5 155.5t113.5 483.5v969h-182v-981q0 -219 -68.5 -327.5t-216.5 -108.5q-147 0 -216 107.5t-69 328.5v981h-180v-969z" />
<glyph unicode="V" d="M72 1569l436 -1567h194l426 1567h-184l-338 -1331l-348 1331h-186z" />
<glyph unicode="W" d="M0 1569l233 -1567h173l194 1356l201 -1356h164l237 1567h-155l-168 -1311l-172 1311h-211l-168 -1311l-168 1311h-160z" />
<glyph unicode="X" d="M84 2h205l309 633l313 -633h207l-422 805l402 762h-197l-299 -580l-291 580h-205l400 -764z" />
<glyph unicode="Y" d="M57 1569l463 -946v-621h180v633l445 934h-203l-332 -742l-338 742h-215z" />
<glyph unicode="Z" d="M117 2h968v191h-755l755 1196v178h-915v-191h713l-766 -1194v-180z" />
<glyph unicode="[" d="M412 -377h379v152h-209v1659h209v151h-379v-1962z" />
<glyph unicode="\" d="M299 1616l471 -1815h133l-469 1815h-135z" />
<glyph unicode="]" horiz-adv-x="1200" d="M410 -225v-152h381v1962h-381v-151h208v-1659h-208z" />
<glyph unicode="^" d="M262 1026q0 -25 16.5 -40t32.5 -15q14 0 25 10l264 307l266 -307q8 -10 25 -10q16 0 32.5 15t16.5 40q0 23 -12 41l-262 387q-20 27 -66 27q-43 0 -61 -27l-265 -387q-12 -18 -12 -41z" />
<glyph unicode="_" d="M16 -258v-160h1170v160h-1170z" />
<glyph unicode="`" horiz-adv-x="1200" d="M408 1690l270 -385h115l-195 385h-190z" />
<glyph unicode="a" d="M145 336q0 -166 82 -260t230 -94q195 0 344 194v-6q0 -174 160 -174q47 0 96 18v154q-25 -8 -41 -8q-43 0 -53.5 30.5t-10.5 90.5v624q0 186 -90 276.5t-289 90.5q-180 0 -282.5 -102.5t-102.5 -278.5v-14h154q0 219 227 219q217 0 217 -185q0 -63 -6 -95t-31.5 -47 t-79 -21.5l-145.5 -18.5q-96 -14 -167.5 -39.5t-119 -72t-70 -115t-22.5 -166.5zM317 354q0 92 39 136.5t125 62.5q82 16 158 27.5t141 52.5v-191q0 -66 -22.5 -118t-62.5 -89.5t-93 -58t-115 -20.5q-170 -1 -170 198z" />
<glyph unicode="b" horiz-adv-x="1204" d="M164 2h170v186q51 -113 126 -171t173 -58q90 0 164.5 44t129 128t84 205t29.5 272q0 154 -29.5 273.5t-84 202.5t-129 127t-164.5 44q-190 0 -299 -227v592h-170v-1618zM336 608q0 233 69.5 351t198.5 118q117 0 189.5 -119.5t72.5 -349.5q0 -229 -72.5 -350t-189.5 -121 q-129 0 -198.5 119t-69.5 352z" />
<glyph unicode="c" d="M166 621q0 -303 116.5 -474.5t327.5 -171.5q92 0 168 34t131.5 95.5t88 149.5t38.5 197h-164q-14 -141 -82.5 -219t-173.5 -78q-135 0 -204.5 118.5t-69.5 354.5q0 233 72.5 352t201.5 119q115 0 178.5 -71t69.5 -200h170q-4 100 -34.5 182.5t-85 140.5t-130 90 t-168.5 32q-102 0 -186 -44t-142.5 -127t-90 -204.5t-31.5 -275.5z" />
<glyph unicode="d" horiz-adv-x="1200" d="M162 608q0 -152 29.5 -272.5t83 -204.5t128 -128t164.5 -44q197 0 301 229v-186h170v1618h-168v-592q-111 227 -303 227q-90 0 -163.5 -44t-128 -127t-84 -202.5t-29.5 -273.5zM336 608q0 229 72.5 349t189.5 120q129 0 198.5 -117.5t69.5 -351.5q0 -233 -69.5 -352 t-198.5 -119q-117 0 -189.5 121t-72.5 350z" />
<glyph unicode="e" d="M168 625q0 -154 30.5 -275t87 -204t134.5 -127t174 -44q82 0 152.5 28t125 79t91 122.5t51.5 162.5h-168q-23 -102 -83.5 -157.5t-146.5 -55.5q-121 0 -194.5 105.5t-73.5 299.5v6h684q2 25 2 47v47q0 295 -115.5 454t-318.5 159q-96 0 -176 -44t-136.5 -127t-88 -203.5 t-31.5 -272.5zM348 723q6 178 73.5 276.5t184.5 98.5t182.5 -99.5t65.5 -275.5h-506z" />
<glyph unicode="f" horiz-adv-x="1200" d="M164 889h313v-889h170v889h389v158h-389v196q0 106 59.5 153.5t184.5 47.5q35 0 70.5 -2t74.5 -6v170q-109 12 -184 12q-193 0 -284 -80t-91 -258v-233h-313v-158z" />
<glyph unicode="g" horiz-adv-x="1200" d="M162 643q0 -154 29.5 -273.5t84 -202.5t128 -127t163.5 -44q53 0 95.5 14.5t78 42t68.5 70.5t68 100v-172q0 -156 -58.5 -232.5t-206.5 -76.5q-242 0 -241 186h-164v-10q0 -160 102.5 -253t294.5 -93q240 0 337 128t97 392v1155h-161v-194q-117 238 -310 237 q-90 0 -163.5 -44t-128 -127t-84 -202.5t-29.5 -273.5zM338 643q0 231 71.5 350t190.5 119q129 0 200.5 -119t71.5 -350q0 -229 -71.5 -349t-200.5 -120q-119 0 -190.5 120t-71.5 349z" />
<glyph unicode="h" d="M195 0h172v698q0 182 73.5 279.5t204.5 97.5q115 0 153 -82t38 -237v-756h172v735v60q0 90 -6.5 161.5t-36.5 130.5q-41 80 -114 123t-181 43q-104 0 -181 -57t-122 -162v584h-172v-1618z" />
<glyph unicode="i" horiz-adv-x="1204" d="M164 0h876v158h-354v1011h-170q0 -236 -1 -495.5t-1 -515.5h-350v-158zM510 1393h182v225h-182v-225z" />
<glyph unicode="j" horiz-adv-x="1198" d="M356 -260v-178l94.5 -7.5t79.5 -3.5q90 0 150.5 23t96.5 70t50.5 119.5t14.5 175.5v1251h-441v-168h269v-1067q0 -66 -6.5 -109t-26 -69.5t-56 -36.5t-96.5 -10q-29 0 -61.5 3t-67.5 7zM670 1413h172v225h-172v-225z" />
<glyph unicode="k" horiz-adv-x="1204" d="M172 0h172v426l178 201l307 -627h193l-383 764l393 446h-215l-473 -544v952h-172v-1618z" />
<glyph unicode="l" horiz-adv-x="1204" d="M164 0h874v158h-350v1460h-440v-158h268v-1302h-352v-158z" />
<glyph unicode="m" d="M129 16h158v809q0 139 39 211t102 72q59 0 78.5 -62.5t19.5 -179.5v-850h150v809q0 137 40 210t103 73q59 0 77.5 -62.5t18.5 -179.5v-850h158v836q0 98 -8 176t-30.5 131t-62.5 82t-102 29q-68 0 -119 -44t-92 -132q-23 86 -71.5 131t-120.5 45q-61 0 -109.5 -44 t-76.5 -128v129h-152v-1211z" />
<glyph unicode="n" d="M195 16h172v699q0 182 73.5 279.5t204.5 97.5q115 0 153 -82t38 -238v-756h172v736v61q0 88 -6.5 159.5t-36.5 133.5q-41 78 -114 121t-181 43q-209 0 -312 -228v185h-163v-1211z" />
<glyph unicode="o" d="M147 623q0 -154 32 -275t90.5 -204t142.5 -126t188 -43q213 0 334 168t121 480q0 311 -121 480t-334 169q-211 0 -332 -170t-121 -479zM324 625q0 233 71.5 352t204.5 119t206 -118t73 -353q0 -233 -73 -353t-206 -120q-131 0 -203.5 120t-72.5 353z" />
<glyph unicode="p" horiz-adv-x="1204" d="M164 -430h170v653q59 -123 128.5 -175t170.5 -52q90 0 164.5 44t129 127t84 204t29.5 274q0 154 -29.5 273.5t-84 202.5t-129 126t-164.5 43q-100 0 -171 -54t-128 -175v186h-170v-1677zM336 645q0 231 69.5 349t198.5 118q117 0 189.5 -119t72.5 -348t-72.5 -350 t-189.5 -121q-129 0 -198.5 119t-69.5 352z" />
<glyph unicode="q" horiz-adv-x="1200" d="M162 645q0 -154 29.5 -274.5t84 -203.5t128 -127t163.5 -44q102 0 172 52t129 175v-653h170v1677h-170v-186q-57 121 -127.5 175t-173.5 54q-90 0 -163.5 -43t-128 -126t-84 -202.5t-29.5 -273.5zM336 645q0 229 72.5 348t189.5 119q129 0 198.5 -117.5t69.5 -349.5 q0 -233 -69.5 -352t-198.5 -119q-117 0 -189.5 121t-72.5 350z" />
<glyph unicode="r" horiz-adv-x="1206" d="M258 16h172v693q0 193 70.5 293t199.5 100q98 0 150.5 -65.5t52.5 -186.5h172q-6 420 -340 420q-104 0 -179 -62.5t-128 -181.5v201h-170v-1211z" />
<glyph unicode="s" d="M182 395q4 -203 107.5 -311.5t302.5 -108.5q209 0 318.5 109t109.5 291q0 84 -20.5 141t-60.5 97t-98.5 64.5t-133.5 45.5l-166 45q-80 23 -122 54.5t-42 103.5q0 86 53 131t162 45q104 0 164.5 -51.5t64.5 -143.5h168v4q0 80 -27.5 146.5t-80 115t-125 74t-164.5 25.5 q-94 0 -166 -26.5t-121 -74t-73.5 -112t-24.5 -139.5q0 -78 17.5 -133.5t54 -95.5t91 -67.5t128.5 -48.5l190 -55q39 -10 68.5 -22.5t50 -30.5t31 -46t10.5 -69q0 -90 -62.5 -145t-179.5 -55q-240 0 -258 243h-166z" />
<glyph unicode="t" horiz-adv-x="1200" d="M170 1018h297v-617q0 -113 13.5 -195.5t52 -136t109.5 -80t185 -26.5q78 0 201 12v170q-92 -12 -147 -12q-84 0 -133.5 18.5t-74 56.5t-30.5 94t-6 132v584h391v158h-391v354l-170 -62v-292h-297v-158z" />
<glyph unicode="u" d="M195 434q0 -88 6 -159.5t37 -133.5q41 -78 113.5 -121t180.5 -43q205 0 312 228v-185h164v1211h-172v-699q0 -182 -74 -278t-205 -96q-106 0 -148 73.5t-42 221.5v22v756h-172v-735v-62z" />
<glyph unicode="v" d="M127 1229l387 -1211h180l381 1211h-176l-295 -975l-299 975h-178z" />
<glyph unicode="w" d="M25 1229l258 -1211h161l156 1029l156 -1029h164l258 1211h-166l-174 -946l-133 946h-209l-134 -946l-174 946h-163z" />
<glyph unicode="x" d="M125 18h201l268 471l276 -471h207l-375 625l353 586h-199l-254 -441l-256 441h-201l347 -588z" />
<glyph unicode="y" d="M119 1249l397 -1276l-35 -123q-16 -55 -52 -78.5t-93 -23.5q-68 0 -158 23v-181q41 -12 82 -15t84 -3q72 0 120 17.5t83 56.5t60.5 97t51.5 142l424 1364h-184l-299 -995l-293 995h-188z" />
<glyph unicode="z" d="M178 18h846v168h-631l604 889v154h-790v-168h579l-608 -891v-152z" />
<glyph unicode="{" d="M268 522h39q129 0 181.5 -66.5t52.5 -228.5v-252q0 -113 12 -188.5t49 -120.5t105.5 -64.5t181.5 -19.5h43v164h-29q-66 0 -104.5 12.5t-60 42t-29 77.5t-7.5 120v248q0 78 -7 136t-27.5 101t-58.5 73t-99 48q61 18 99 48t58.5 73t27.5 101.5t7 136.5v247q0 70 6.5 119 t27 79t59.5 43t102 13h35v162h-43q-113 0 -181.5 -18.5t-105.5 -63.5t-49 -120.5t-12 -188.5v-254q0 -162 -52.5 -227.5t-181.5 -65.5h-39v-166z" />
<glyph unicode="|" d="M530 -512h142v2253h-142v-2253z" />
<glyph unicode="}" d="M268 -254v-164h45q113 0 181.5 19.5t106.5 64.5t50.5 121t12.5 188v252q0 162 51 228.5t180 66.5h37v166q-10 0 -20.5 -1t-20.5 -1q-127 0 -177 66.5t-50 228.5v254q0 113 -12.5 188.5t-50.5 120.5t-106.5 63.5t-181.5 18.5h-45v-162h39q63 0 101 -13t58.5 -43t28 -78 t7.5 -120v-247q0 -78 6 -136.5t26.5 -101.5t58.5 -72.5t99 -48.5q-61 -18 -99 -48t-58.5 -73t-26.5 -102t-6 -135v-248q0 -72 -7.5 -120t-28 -76.5t-58 -42t-101.5 -13.5h-39z" />
<glyph unicode="~" d="M141 655q0 -68 47 -67q16 0 36 12l46.5 27.5t59 28t73.5 12.5q49 0 97.5 -14.5t97.5 -33t98 -33t99 -14.5q51 0 99 17.5t85 44.5t59.5 57.5t22.5 59.5q0 68 -47 67q-16 0 -37 -12l-46 -28q-26 -15 -58.5 -27.5t-73.5 -12.5q-47 0 -96.5 14.5t-98.5 33t-99 33t-99 14.5 q-53 0 -100.5 -17.5t-84.5 -44.5t-58.5 -58.5t-21.5 -58.5z" />
<glyph unicode="&#xa2;" d="M117 621q0 -424 268 -598l-78 -244h99l65 217q45 -8 82 -13.5t72 -5.5q96 0 179 35t143.5 97.5t97 149.5t40.5 194h-163q-16 -137 -96.5 -217t-200.5 -80q-25 0 -48.5 4t-50.5 8l271 885q57 -41 84.5 -93.5t31.5 -130.5h170q-2 133 -62 234.5t-171 159.5l68 219h-99 l-57 -189q-74 18 -144 19q-115 0 -208 -44t-158.5 -128t-100 -204.5t-34.5 -274.5zM293 629q0 231 86 351t239 120q49 0 93 -15l-273 -882q-145 121 -145 426z" />
<glyph unicode="&#xa3;" horiz-adv-x="1204" d="M115 690h209q16 -41 26 -79t10 -79q0 -98 -59 -196t-176 -207l94 -152q115 92 244 93q74 0 129 -25l90 -41q33 -14 72 -26.5t94 -12.5q68 0 124 27.5t115 83.5l-77 149q-41 -31 -78 -48t-80 -17q-31 0 -64.5 11t-70.5 25.5t-79 25.5t-89 11q-55 0 -108.5 -9t-112.5 -44 q195 207 194 389q0 27 -5 56.5t-15 64.5h262v127h-309l-73 168q-32 74 -32 145q0 55 19.5 104.5t53.5 85.5t82 57.5t107 21.5q127 0 197 -79t70 -228v-19h172q2 12 2 23v22q0 106 -31 191.5t-88 144.5t-139 92t-183 33q-100 0 -182 -36t-140.5 -97.5t-91 -141t-32.5 -167.5 q0 -76 24.5 -159t75.5 -161h-151v-127z" />
<glyph unicode="&#xa4;" d="M4 594h115q33 -307 162 -471t327 -164q98 0 182 25.5t146.5 86t103.5 161t54 249.5h-187q-12 -106 -38.5 -171.5t-65.5 -100.5t-88 -47t-107 -12q-115 0 -195.5 112.5t-105.5 331.5h750v133h-760q0 14 -1 27.5t-1 29.5q0 51 3 97.5t7 89.5h752v135h-729 q39 156 110.5 235.5t169.5 79.5q49 0 93 -5t80 -27.5t62.5 -66.5t43.5 -124h184q-16 121 -56 200t-100.5 126t-138.5 66.5t-168 19.5q-176 0 -299 -129t-172 -375h-133v-135h115q-4 -45 -7 -91t-3 -96v-28q0 -14 2 -29h-107v-133z" />
<glyph unicode="&#x20ac;" d="M4 594h115q33 -307 162 -471t327 -164q98 0 182 25.5t146.5 86t103.5 161t54 249.5h-187q-12 -106 -38.5 -171.5t-65.5 -100.5t-88 -47t-107 -12q-115 0 -195.5 112.5t-105.5 331.5h750v133h-760q0 14 -1 27.5t-1 29.5q0 51 3 97.5t7 89.5h752v135h-729 q39 156 110.5 235.5t169.5 79.5q49 0 93 -5t80 -27.5t62.5 -66.5t43.5 -124h184q-16 121 -56 200t-100.5 126t-138.5 66.5t-168 19.5q-176 0 -299 -129t-172 -375h-133v-135h115q-4 -45 -7 -91t-3 -96v-28q0 -14 2 -29h-107v-133z" />
<glyph unicode="&#xa5;" d="M31 610h491v-606h176v606h473v121h-419l65 123h354v121h-290l290 559h-196l-365 -721l-364 721h-215l303 -559h-303v-121h366l68 -123h-434v-121z" />
<glyph unicode="&#xa9;" d="M39 760q0 -168 65.5 -310.5t186.5 -234.5q70 -53 147.5 -81t161.5 -28q117 0 217.5 49.5t177.5 143.5q82 94 125 213t43 248t-44 249.5t-121.5 213t-182 140.5t-215.5 48q-113 0 -215 -49t-182 -143q-82 -92 -123 -210t-41 -249zM133 760q0 104 36 204.5t101.5 178.5 t151.5 119t178 41q94 0 180 -40t152 -118q66 -76 101.5 -176.5t35.5 -208.5q0 -106 -35 -205.5t-102 -177.5q-66 -78 -153 -119t-179 -41t-176 41t-152 119q-66 78 -102.5 177.5t-36.5 205.5zM270 745q0 -88 26 -162.5t70 -128t103 -84t129 -30.5q55 0 103.5 17.5t84 43 t57 55t21.5 52.5q0 63 -57 63q-12 0 -30.5 -15t-44 -32.5t-58.5 -33t-72 -15.5q-86 0 -142.5 75t-56.5 204q0 139 53.5 213.5t143.5 74.5q49 0 84 -26.5t41 -61.5l10 -46t10.5 -32.5t17.5 -20.5t32 -7q33 0 45 17.5t12 56.5v75q0 90 -8 125t-49 35q-35 0 -50 -24 q-74 33 -145 32q-72 0 -131 -31.5t-104.5 -88t-70 -133.5t-24.5 -167z" />
<glyph unicode="&#xad;" d="M367 535h469v178h-469v-178z" />
<glyph unicode="&#xae;" d="M39 760q0 -168 65.5 -310.5t186.5 -234.5q70 -53 147.5 -81t161.5 -28q117 0 217.5 49.5t177.5 143.5q82 94 125 213t43 248t-44 249.5t-121.5 213t-182 140.5t-215.5 48q-113 0 -215 -49t-182 -143q-82 -92 -123 -210t-41 -249zM133 760q0 104 36 204.5t101.5 178.5 t151.5 119t178 41q94 0 180 -40t152 -118q66 -76 101.5 -176.5t35.5 -208.5q0 -106 -35 -205.5t-102 -177.5q-66 -78 -153 -119t-179 -41t-176 41t-152 119q-66 78 -102.5 177.5t-36.5 205.5zM319 463q0 -61 52 -62h172q35 0 51 13.5t16 48.5q0 61 -71 61h-17v185h17 q33 0 47 -15.5t41 -62.5l98 -172q16 -29 29.5 -43.5t40.5 -14.5h55q53 0 53 62q0 61 -67 61h-7l-100 172q-6 12 -12 20.5l-10 14.5q55 23 86.5 73t31.5 116q0 117 -68.5 170t-203.5 53h-182q-51 0 -52 -62q0 -37 18.5 -47t59.5 -10h13v-500h-13q-41 0 -59.5 -12t-18.5 -49z M522 823v201h56q125 0 124 -100q0 -100 -127 -101h-53z" />
<glyph unicode="&#xb4;" horiz-adv-x="1204" d="M410 1305h114l271 385h-191z" />
<glyph unicode="&#x2000;" horiz-adv-x="870" />
<glyph unicode="&#x2001;" horiz-adv-x="1740" />
<glyph unicode="&#x2002;" horiz-adv-x="870" />
<glyph unicode="&#x2003;" horiz-adv-x="1740" />
<glyph unicode="&#x2004;" horiz-adv-x="579" />
<glyph unicode="&#x2005;" horiz-adv-x="434" />
<glyph unicode="&#x2006;" horiz-adv-x="288" />
<glyph unicode="&#x2007;" horiz-adv-x="288" />
<glyph unicode="&#x2008;" horiz-adv-x="217" />
<glyph unicode="&#x2009;" horiz-adv-x="348" />
<glyph unicode="&#x200a;" horiz-adv-x="96" />
<glyph unicode="&#x2010;" d="M367 535h469v178h-469v-178z" />
<glyph unicode="&#x2011;" d="M367 535h469v178h-469v-178z" />
<glyph unicode="&#x2012;" d="M367 535h469v178h-469v-178z" />
<glyph unicode="&#x2013;" d="M16 547h1170v153h-1170v-153z" />
<glyph unicode="&#x2014;" d="M16 547h1170v153h-1170v-153z" />
<glyph unicode="&#x2018;" d="M471 905h223v283h-108v33q0 106 32.5 155t112.5 62v127q-127 -10 -193.5 -100.5t-66.5 -258.5v-301z" />
<glyph unicode="&#x2019;" horiz-adv-x="1200" d="M471 868q127 10 193.5 99.5t66.5 257.5v301h-223v-281h108v-35q0 -106 -32.5 -154t-112.5 -61v-127z" />
<glyph unicode="&#x201c;" d="M270 905h222v283h-109v33q0 106 34 155t113 62v127q-127 -10 -193.5 -100.5t-66.5 -258.5v-301zM672 905h223v283h-109v33q0 106 33 155t113 62v127q-127 -10 -193.5 -100.5t-66.5 -258.5v-301z" />
<glyph unicode="&#x201d;" d="M270 868q127 10 193.5 99.5t66.5 257.5v301h-223v-281h109v-35q0 -106 -33 -154t-113 -61v-127zM672 868q260 18 260 357v301h-223v-281h108v-35q0 -106 -32.5 -154t-112.5 -61v-127z" />
<glyph unicode="&#x2022;" d="M449 758q0 -74 45 -125t106 -51q31 0 59.5 14t49 37.5t33 55.5t12.5 69t-12.5 68.5t-33 56t-49 39t-59.5 14.5q-61 0 -106 -52t-45 -126z" />
<glyph unicode="&#x2026;" d="M76 176q0 -68 40 -112t93 -44q57 0 96 45.5t39 110.5q0 63 -40 108.5t-95 45.5t-94 -45.5t-39 -108.5zM467 176q0 -68 40 -112t93 -44q57 0 96 45.5t39 110.5q0 63 -40 108.5t-95 45.5t-94 -45.5t-39 -108.5zM858 176q0 -68 40 -112t93 -44q57 0 95 45.5t38 110.5 q0 63 -38.5 108.5t-94.5 45.5q-55 0 -94 -45.5t-39 -108.5z" />
<glyph unicode="&#x202f;" horiz-adv-x="348" />
<glyph unicode="&#x205f;" horiz-adv-x="434" />
<glyph unicode="&#x2122;" d="M125 1135q0 -41 9 -58.5t38 -17.5t40 18.5t11 63.5l2 102h64v-387h-35q-35 0 -51.5 -12.5t-16.5 -46.5q0 -29 13.5 -45.5t36.5 -16.5h208q23 0 35.5 17.5t12.5 44.5q0 35 -15.5 47t-50.5 12h-35v387h62l4 -102q2 -45 12 -63.5t39 -18.5q20 0 34.5 15.5t14.5 41.5v29 l-6 160q-4 59 -51 59h-322q-49 0 -49 -59l-4 -160v-10zM586 797q0 -61 49 -62h102q59 0 60 62q0 59 -64 59h-8v311l49 -206q10 -53 57 -54q43 0 54 54l49 206v-311h-8q-61 0 -62 -59q0 -61 62 -62h102q23 0 36 16.5t13 45.5q0 53 -49 59l-10 389q43 10 43 58q0 29 -13.5 44 t-33.5 15h-64q-49 0 -61 -51l-58 -242l-57 242q-12 51 -63 51h-62q-20 0 -33.5 -15.5t-13.5 -43.5q0 -49 41 -58l-8 -389q-49 -6 -49 -59z" />
<glyph unicode="&#xe000;" horiz-adv-x="1230" d="M0 1230h1230v-1230h-1230v1230z" />
<glyph unicode="&#xfb01;" horiz-adv-x="2404" d="M1364 0h876v158h-354v1011h-170q0 -236 -1 -495.5t-1 -515.5h-350v-158zM1710 1393h182v225h-182v-225zM164 889h313v-889h170v889h389v158h-389v196q0 106 59.5 153.5t184.5 47.5q35 0 70.5 -2t74.5 -6v170q-109 12 -184 12q-193 0 -284 -80t-91 -258v-233h-313v-158z " />
<glyph unicode="&#xfb02;" horiz-adv-x="2404" d="M1364 0h874v158h-350v1460h-440v-158h268v-1302h-352v-158zM164 889h313v-889h170v889h389v158h-389v196q0 106 59.5 153.5t184.5 47.5q35 0 70.5 -2t74.5 -6v170q-109 12 -184 12q-193 0 -284 -80t-91 -258v-233h-313v-158z" />
<glyph unicode="&#xfb03;" horiz-adv-x="3604" d="M2564 0h876v158h-354v1011h-170q0 -236 -1 -495.5t-1 -515.5h-350v-158zM2910 1393h182v225h-182v-225zM1364 889h313v-889h170v889h389v158h-389v196q0 106 59.5 153.5t184.5 47.5q35 0 70.5 -2t74.5 -6v170q-109 12 -184 12q-193 0 -284 -80t-91 -258v-233h-313v-158z M164 889h313v-889h170v889h389v158h-389v196q0 106 59.5 153.5t184.5 47.5q35 0 70.5 -2t74.5 -6v170q-109 12 -184 12q-193 0 -284 -80t-91 -258v-233h-313v-158z" />
<glyph unicode="&#xfb04;" horiz-adv-x="3604" d="M2564 0h874v158h-350v1460h-440v-158h268v-1302h-352v-158zM1364 889h313v-889h170v889h389v158h-389v196q0 106 59.5 153.5t184.5 47.5q35 0 70.5 -2t74.5 -6v170q-109 12 -184 12q-193 0 -284 -80t-91 -258v-233h-313v-158zM164 889h313v-889h170v889h389v158h-389v196 q0 106 59.5 153.5t184.5 47.5q35 0 70.5 -2t74.5 -6v170q-109 12 -184 12q-193 0 -284 -80t-91 -258v-233h-313v-158z" />
</font>
</defs>
</svg>
